<svg width="122" height="121" viewBox="0 0 122 121" fill="none" xmlns="http://www.w3.org/2000/svg">
  <path d="M61.0001 111C88.8905 111 111.5 88.3905 111.5 60.5001C111.5 32.6097 88.8905 10 61.0001 10C33.1097 10 10.5 32.6097 10.5 60.5001C10.5 88.3905 33.1097 111 61.0001 111Z" fill="#FF3333"/>
  <path d="M111.5 60.4998C111.5 88.2749 88.7752 111 61.0001 111C44.9032 111 30.7001 103.741 21.5469 92.0625C30.0688 99.0063 41.1157 103.109 53.1093 103.109C80.8844 103.109 103.609 80.3844 103.609 52.6093C103.609 40.6157 99.5063 29.5688 92.5625 21.0469C104.241 30.1997 111.5 44.4028 111.5 60.4998Z" fill="#FF3333"/>
  <path d="M84.0405 83.5405C82.1468 85.4342 78.9904 85.4342 77.0967 83.5405L60.9999 67.4437L44.9031 83.5405C43.0094 85.4342 39.853 85.4342 37.9593 83.5405C36.0656 81.6468 36.0656 78.4904 37.9593 76.5967L54.0561 60.4999L37.9593 44.4031C36.0656 42.5094 36.0656 39.353 37.9593 37.4593C39.853 35.5656 43.0094 35.5656 44.9031 37.4593L60.9999 53.5561L77.0967 37.4593C78.9904 35.5656 82.1468 35.5656 84.0405 37.4593C85.9342 39.353 85.9342 42.5094 84.0405 44.4031L67.9437 60.4999L84.0405 76.5967C85.9342 78.4904 85.9342 81.6466 84.0405 83.5405Z" fill="white"/>
</svg>
