<svg width="81" height="97" viewBox="0 0 81 97" fill="none" xmlns="http://www.w3.org/2000/svg">
  <path d="M29.6406 35.7732V49.4775L47.8551 60.877L91.4376 28.8214C89.9074 25.4436 87.9841 22.2572 85.7074 19.3281L47.8551 47.1727L29.6406 35.7732Z" fill="url(#paint0_linear_4002_9901)"/>
  <path d="M84.6807 47.5323C84.6807 47.8563 84.6807 48.1802 84.6807 48.5166C84.6887 56.7196 81.9447 64.6892 76.886 71.155C71.8273 77.6207 64.7451 82.2102 56.7686 84.192C48.792 86.1738 40.3802 85.4337 32.8741 82.0898C25.3681 78.7458 19.1999 72.9904 15.3529 65.7411C11.5059 58.4919 10.2015 50.1661 11.6476 42.091C13.0938 34.0159 17.2073 26.6563 23.3324 21.1856C29.4575 15.7149 37.2415 12.4479 45.4436 11.9055C53.6456 11.3631 61.7936 13.5764 68.5885 18.1928L77.8892 11.3531C69.447 4.5521 58.9389 0.8169 48.0892 0.760416C37.2396 0.703932 26.693 4.32952 18.1801 11.0422C9.66719 17.7549 3.69364 27.156 1.23971 37.7028C-1.21421 48.2495 -0.00275413 59.3154 4.67529 69.0846C9.35334 78.8538 17.2201 86.7459 26.9846 91.466C36.7492 96.186 47.8315 97.4535 58.4129 95.0605C68.9944 92.6675 78.4464 86.7562 85.218 78.2965C91.9896 69.8369 95.6785 59.3314 95.6793 48.5041C95.6803 45.6342 95.4254 42.77 94.9177 39.9452L84.6807 47.5323Z" fill="url(#paint1_linear_4002_9901)"/>
  <defs>
    <linearGradient id="paint0_linear_4002_9901" x1="35.6359" y1="35.485" x2="55.1778" y2="74.1586" gradientUnits="userSpaceOnUse">
      <stop stop-color="#CDCDCD"/>
      <stop offset="1" stop-color="#CDCDCD" stop-opacity="0"/>
    </linearGradient>
    <linearGradient id="paint1_linear_4002_9901" x1="9.28232" y1="37.889" x2="62.8342" y2="109.292" gradientUnits="userSpaceOnUse">
      <stop stop-color="#CDCDCD"/>
      <stop offset="1" stop-color="#CDCDCD" stop-opacity="0"/>
    </linearGradient>
  </defs>
</svg>
