<svg width="120" height="120" viewBox="0 0 120 120" fill="none" xmlns="http://www.w3.org/2000/svg">
  <path d="M60 109.562C87.3726 109.562 109.562 87.3726 109.562 60C109.562 32.6274 87.3726 10.4375 60 10.4375C32.6274 10.4375 10.4375 32.6274 10.4375 60C10.4375 87.3726 32.6274 109.562 60 109.562Z" fill="#82D494"/>
  <path d="M95.046 24.9551C104.2 34.2786 109.301 46.8395 109.241 59.9053C109.181 72.971 103.964 85.4845 94.7254 94.7235C85.4865 103.962 72.973 109.179 59.9072 109.239C46.8414 109.3 34.2805 104.198 24.957 95.0441L95.046 24.9551Z" fill="#82D494"/>
  <path d="M52.3761 79.0621H52.277C51.7223 79.0467 51.1775 78.9108 50.6805 78.664C50.1834 78.4171 49.746 78.0651 49.3986 77.6324L34.1486 58.5699C33.5166 57.7802 33.2242 56.7718 33.3358 55.7665C33.4473 54.7612 33.9536 53.8415 34.7433 53.2095C35.533 52.5775 36.5414 52.2852 37.5467 52.3967C38.5519 52.5082 39.4717 53.0146 40.1037 53.8043L52.5286 69.3364L80.0282 38.4056C80.355 38.0124 80.7576 37.689 81.212 37.4546C81.6664 37.2202 82.1633 37.0795 82.6731 37.0411C83.183 37.0026 83.6953 37.0671 84.1797 37.2307C84.6641 37.3943 85.1107 37.6536 85.4928 37.9933C85.875 38.333 86.1849 38.746 86.4041 39.2079C86.6234 39.6698 86.7475 40.1711 86.7691 40.6819C86.7906 41.1927 86.7092 41.7027 86.5297 42.1814C86.3502 42.6601 86.0762 43.0979 85.7241 43.4686L55.2241 77.7811C54.8668 78.1837 54.4283 78.5061 53.9374 78.7269C53.4465 78.9477 52.9144 79.0619 52.3761 79.0621Z" fill="#F2F2F2"/>
</svg>
