<svg width="16" height="16" viewBox="0 0 16 16" fill="none" xmlns="http://www.w3.org/2000/svg">
  <g clip-path="url(#clip0_80_14167)">
    <g clip-path="url(#clip1_80_14167)">
      <path d="M16.0377 5.10496L8.60186 0.45755C8.54114 0.420178 8.47125 0.400391 8.39996 0.400391C8.32866 0.400391 8.25877 0.420178 8.19806 0.45755L0.762242 5.10496C0.622859 5.18535 0.514233 5.30988 0.453524 5.45889C0.392815 5.60789 0.383485 5.77288 0.427008 5.92778C0.481029 6.09693 0.588727 6.24386 0.733776 6.34628C0.878825 6.4487 1.05331 6.50104 1.23079 6.49536H15.5691C15.7466 6.50104 15.9211 6.4487 16.0661 6.34628C16.2112 6.24386 16.3189 6.09693 16.3729 5.92778C16.4164 5.77288 16.4071 5.6079 16.3464 5.45889C16.2857 5.30988 16.1771 5.18534 16.0377 5.10496ZM8.39997 4.97161C7.76883 4.97161 7.25717 4.45996 7.25717 3.82881C7.25717 3.19767 7.76883 2.68601 8.39997 2.68601C9.03112 2.68601 9.54278 3.19767 9.54278 3.82881C9.54088 4.45921 9.03034 4.96976 8.39997 4.97161Z" fill="#CDCDCD"/>
      <path d="M8.39992 4.59012C8.82068 4.59012 9.16177 4.24902 9.16177 3.82826C9.16177 3.4075 8.82068 3.06641 8.39992 3.06641C7.97916 3.06641 7.63806 3.4075 7.63806 3.82826C7.63806 4.24902 7.97916 4.59012 8.39992 4.59012Z" fill="#CDCDCD"/>
      <path d="M10.3047 6.11532V6.49627H6.49538V6.11532C6.49538 5.90494 6.66594 5.73438 6.87632 5.73438H9.92378C10.1342 5.73441 10.3047 5.90494 10.3047 6.11532ZM10.3047 13.734H6.49538C6.49604 13.4982 6.56961 13.2684 6.70601 13.0761C6.8424 12.8838 7.03494 12.7384 7.25723 12.6598V7.95145C7.03494 7.87285 6.8424 7.72743 6.70601 7.53511C6.56961 7.34279 6.49604 7.11299 6.49538 6.87721H10.3047C10.3041 7.11299 10.2305 7.34279 10.0941 7.53511C9.9577 7.72743 9.76516 7.87285 9.54287 7.95145V12.6598C9.76515 12.7384 9.95769 12.8838 10.0941 13.0761C10.2305 13.2685 10.304 13.4982 10.3047 13.734ZM5.73349 6.11532V6.49627H1.92417V6.11532C1.92417 5.90494 2.09474 5.73438 2.30512 5.73438H5.35258C5.56296 5.73441 5.73349 5.90494 5.73349 6.11532ZM5.73349 13.734H1.92417C1.92483 13.4982 1.99841 13.2684 2.1348 13.0761C2.2712 12.8838 2.46374 12.7384 2.68603 12.6598V7.95145C2.46374 7.87285 2.2712 7.72743 2.1348 7.53511C1.99841 7.34279 1.92483 7.11299 1.92417 6.87721H5.73352C5.73286 7.11299 5.65929 7.34279 5.52289 7.53511C5.3865 7.72743 5.19396 7.87285 4.97167 7.95145V12.6598C5.19395 12.7384 5.38648 12.8838 5.52287 13.0761C5.65926 13.2685 5.73283 13.4982 5.73349 13.734ZM14.8759 6.11532V6.49627H11.0666V6.11532C11.0666 5.90494 11.2371 5.73438 11.4475 5.73438H14.495C14.7054 5.73441 14.8759 5.90494 14.8759 6.11532ZM14.8759 13.734H11.0666C11.0672 13.4982 11.1408 13.2684 11.2772 13.0761C11.4136 12.8838 11.6061 12.7384 11.8284 12.6598V7.95145C11.6061 7.87285 11.4136 7.72743 11.2772 7.53511C11.1408 7.34279 11.0672 7.11299 11.0666 6.87721H14.8759C14.8753 7.11299 14.8017 7.34279 14.6653 7.53511C14.5289 7.72743 14.3364 7.87285 14.1141 7.95145V12.6598C14.3364 12.7384 14.5289 12.8838 14.6653 13.0761C14.8017 13.2685 14.8752 13.4982 14.8759 13.734ZM15.2568 14.1149H1.54323C1.123 14.1162 0.782622 14.4566 0.781372 14.8768V15.6386C0.782622 16.0589 1.123 16.3992 1.54323 16.4005H15.2568C15.6771 16.3992 16.0174 16.0589 16.0187 15.6386V14.8768C16.0174 14.4566 15.6771 14.1162 15.2568 14.1149Z" fill="#CDCDCD"/>
    </g>
  </g>
  <defs>
    <clipPath id="clip0_80_14167">
      <rect width="16" height="16" fill="white"/>
    </clipPath>
    <clipPath id="clip1_80_14167">
      <rect width="16" height="16" fill="white" transform="translate(0.400024 0.400391)"/>
    </clipPath>
  </defs>
</svg>
