<svg width="16" height="12" viewBox="0 0 16 12" fill="none" xmlns="http://www.w3.org/2000/svg">
  <path d="M0.726562 2.00009C0.726563 1.71076 0.841497 1.43328 1.04608 1.2287C1.25067 1.02411 1.52814 0.90918 1.81747 0.90918H14.1811C14.4704 0.90918 14.7479 1.02411 14.9525 1.2287C15.1571 1.43328 15.272 1.71076 15.272 2.00009V3.091H0.726562V2.00009Z" fill="#CDCDCD"/>
  <path fill-rule="evenodd" clip-rule="evenodd" d="M0.726562 4.54541V9.99995C0.726563 10.2893 0.841497 10.5668 1.04608 10.7713C1.25067 10.9759 1.52814 11.0909 1.81747 11.0909H14.1811C14.4704 11.0909 14.7479 10.9759 14.9525 10.7713C15.1571 10.5668 15.272 10.2893 15.272 9.99995V4.54541H0.726562ZM5.81747 7.4545H2.18111V5.99996H5.81747V7.4545Z" fill="#CDCDCD"/>
</svg>
