<svg width="16" height="17" viewBox="0 0 16 17" fill="none" xmlns="http://www.w3.org/2000/svg">
  <path d="M4.49395 15.1335C3.73568 15.1337 2.99438 14.909 2.36385 14.4878C1.73332 14.0666 1.24191 13.4678 0.951785 12.7672C0.661662 12.0667 0.585871 11.2958 0.734001 10.5521C0.882132 9.80844 1.24753 9.12543 1.78395 8.58949L7.44062 2.93216C7.53442 2.83836 7.66163 2.78567 7.79428 2.78567C7.92693 2.78567 8.05415 2.83836 8.14795 2.93216C8.24175 3.02596 8.29444 3.15318 8.29444 3.28583C8.29444 3.41848 8.24175 3.5457 8.14795 3.63949L2.49062 9.29616C2.21673 9.5568 1.99778 9.86963 1.84666 10.2162C1.69554 10.5628 1.61532 10.9361 1.61071 11.3141C1.60611 11.6922 1.67722 12.0674 1.81985 12.4175C1.96248 12.7677 2.17374 13.0857 2.4412 13.353C2.70866 13.6202 3.0269 13.8312 3.37717 13.9735C3.72744 14.1159 4.10265 14.1867 4.4807 14.1817C4.85876 14.1768 5.232 14.0963 5.57845 13.9449C5.9249 13.7935 6.23754 13.5743 6.49795 13.3002L13.8046 5.99349C14.1394 5.64774 14.3249 5.18422 14.3211 4.70293C14.3172 4.22163 14.1243 3.76115 13.784 3.42082C13.4436 3.08048 12.9831 2.88757 12.5019 2.88371C12.0206 2.87984 11.557 3.06533 11.2113 3.40016L5.31928 9.29616C5.24189 9.37355 5.1805 9.46543 5.13862 9.56655C5.09673 9.66767 5.07517 9.77605 5.07517 9.88549C5.07517 9.99494 5.09673 10.1033 5.13862 10.2044C5.1805 10.3056 5.24189 10.3974 5.31928 10.4748C5.39668 10.5522 5.48855 10.6136 5.58967 10.6555C5.69079 10.6974 5.79917 10.7189 5.90862 10.7189C6.01807 10.7189 6.12644 10.6974 6.22756 10.6555C6.32868 10.6136 6.42056 10.5522 6.49795 10.4748L10.268 6.70416C10.3141 6.65638 10.3692 6.61827 10.4302 6.59204C10.4912 6.5658 10.5568 6.55198 10.6232 6.55137C10.6896 6.55076 10.7554 6.56338 10.8169 6.58849C10.8783 6.61361 10.9342 6.65071 10.9811 6.69763C11.0281 6.74455 11.0653 6.80036 11.0904 6.8618C11.1156 6.92323 11.1283 6.98907 11.1277 7.05546C11.1272 7.12185 11.1134 7.18746 11.0873 7.24848C11.0611 7.30949 11.023 7.36468 10.9753 7.41083L7.20462 11.1822C7.03438 11.3524 6.83227 11.4875 6.60983 11.5797C6.38739 11.6719 6.14897 11.7193 5.90819 11.7194C5.6674 11.7194 5.42897 11.672 5.20651 11.5799C4.98404 11.4878 4.7819 11.3527 4.61162 11.1825C4.44134 11.0123 4.30625 10.8101 4.21408 10.5877C4.12191 10.3653 4.07445 10.1268 4.07442 9.88606C4.07436 9.39978 4.26747 8.93339 4.61128 8.58949L10.5046 2.70016C11.0359 2.16876 11.7566 1.87018 12.508 1.87012C13.2595 1.87005 13.9802 2.16851 14.5116 2.69983C15.043 3.23114 15.3416 3.9518 15.3417 4.70326C15.3417 5.45472 15.0433 6.17542 14.512 6.70683L7.20528 14.0108C6.85 14.3679 6.42743 14.651 5.96204 14.8437C5.49665 15.0364 4.99766 15.1349 4.49395 15.1335Z" fill="black"/>
</svg>
