<svg width="20" height="20" viewBox="0 0 20 20" fill="none" xmlns="http://www.w3.org/2000/svg">
  <circle opacity="0.2" cx="10" cy="10" r="10" fill="#FF3333"/>
  <g clip-path="url(#clip0_131_847)">
    <path d="M13.5355 12.8284L10.7071 10L13.5356 7.17156C13.7307 6.97645 13.7307 6.65961 13.5355 6.46443C13.3404 6.26932 13.0236 6.26932 12.8284 6.46443L10 9.29288L7.17155 6.46443C6.97644 6.26932 6.6596 6.26932 6.46449 6.46443C6.26931 6.65961 6.26931 6.97645 6.46442 7.17156L9.29287 10L6.46449 12.8284C6.26931 13.0236 6.26931 13.3404 6.46442 13.5355C6.6596 13.7307 6.97644 13.7307 7.17162 13.5355L10 10.7071L12.8284 13.5355C13.0236 13.7307 13.3404 13.7307 13.5356 13.5355C13.7307 13.3404 13.7307 13.0236 13.5355 12.8284Z" fill="#FF3333"/>
  </g>
  <defs>
    <clipPath id="clip0_131_847">
      <rect width="10" height="10" fill="white" transform="translate(5 5)"/>
    </clipPath>
  </defs>
</svg>
