<svg width="16" height="16" viewBox="0 0 16 16" fill="none" xmlns="http://www.w3.org/2000/svg">
  <g clip-path="url(#clip0_90_31057)">
    <path d="M13.6568 12.5257L9.13141 8.00026L13.6569 3.47474C13.9691 3.16256 13.9691 2.65562 13.6568 2.34334C13.3446 2.03116 12.8377 2.03116 12.5255 2.34334L8 6.86885L3.47448 2.34334C3.16231 2.03116 2.65536 2.03116 2.34319 2.34334C2.0309 2.65562 2.0309 3.16256 2.34308 3.47474L6.86859 8.00026L2.34319 12.5257C2.0309 12.838 2.0309 13.3449 2.34308 13.6571C2.65536 13.9694 3.16231 13.9694 3.47459 13.6571L8 9.13166L12.5254 13.6571C12.8377 13.9694 13.3446 13.9694 13.6569 13.6571C13.9691 13.3449 13.9691 12.838 13.6568 12.5257Z" fill="#FF3333"/>
  </g>
  <defs>
    <clipPath id="clip0_90_31057">
      <rect width="16" height="16" fill="white"/>
    </clipPath>
  </defs>
</svg>
