<svg width="24" height="24" viewBox="0 0 24 24" fill="none" xmlns="http://www.w3.org/2000/svg">
  <g clip-path="url(#clip0_87_28225)">
    <path d="M20.4852 18.788L13.6971 11.9999L20.4854 5.21163C20.9536 4.74336 20.9536 3.98294 20.4852 3.51452C20.017 3.04625 19.2565 3.04625 18.7883 3.51452L12 10.3028L5.21173 3.51452C4.74346 3.04625 3.98305 3.04625 3.51478 3.51452C3.04635 3.98294 3.04635 4.74336 3.51462 5.21163L10.3029 11.9999L3.51478 18.788C3.04635 19.2564 3.04635 20.0169 3.51462 20.4851C3.98305 20.9535 4.74346 20.9535 5.21189 20.4851L12 13.697L18.7881 20.4851C19.2565 20.9535 20.017 20.9535 20.4854 20.4851C20.9536 20.0169 20.9536 19.2564 20.4852 18.788Z" fill="#999999"/>
  </g>
  <defs>
    <clipPath id="clip0_87_28225">
      <rect width="24" height="24" fill="white"/>
    </clipPath>
  </defs>
</svg>
