<svg width="17" height="17" viewBox="0 0 17 17" fill="none" xmlns="http://www.w3.org/2000/svg">
  <g clip-path="url(#clip0_131_744)">
    <g clip-path="url(#clip1_131_744)">
      <path d="M6.04026 16.5C5.87705 16.5 5.72053 16.4352 5.60512 16.3198C5.48971 16.2044 5.42488 16.0478 5.42488 15.8846V12.8077H4.19411C3.37836 12.8067 2.5963 12.4822 2.01948 11.9054C1.44265 11.3286 1.11816 10.5465 1.11719 9.73077V3.57692C1.11816 2.76117 1.44265 1.97911 2.01948 1.40229C2.5963 0.825466 3.37836 0.500977 4.19411 0.5H12.8095C13.6252 0.500977 14.4073 0.825466 14.9841 1.40229C15.561 1.97911 15.8854 2.76117 15.8864 3.57692V9.73077C15.8854 10.5465 15.561 11.3286 14.9841 11.9054C14.4073 12.4822 13.6252 12.8067 12.8095 12.8077H10.5756L6.44026 16.3517C6.32908 16.4476 6.18708 16.5002 6.04026 16.5ZM4.19411 1.73077C3.70448 1.73077 3.2349 1.92527 2.88868 2.2715C2.54246 2.61772 2.34796 3.08729 2.34796 3.57692V9.73077C2.34796 10.2204 2.54246 10.69 2.88868 11.0362C3.2349 11.3824 3.70448 11.5769 4.19411 11.5769H6.04026C6.20347 11.5769 6.36 11.6418 6.47541 11.7572C6.59081 11.8726 6.65565 12.0291 6.65565 12.1923V14.5468L9.94796 11.7252C10.0592 11.6294 10.2011 11.5768 10.348 11.5769H12.8095C13.2991 11.5769 13.7687 11.3824 14.1149 11.0362C14.4611 10.69 14.6556 10.2204 14.6556 9.73077V3.57692C14.6556 3.08729 14.4611 2.61772 14.1149 2.2715C13.7687 1.92527 13.2991 1.73077 12.8095 1.73077H4.19411Z" fill="#0D0911"/>
      <path d="M4.80889 7.88439C5.48863 7.88439 6.03966 7.33336 6.03966 6.65362C6.03966 5.97389 5.48863 5.42285 4.80889 5.42285C4.12916 5.42285 3.57812 5.97389 3.57812 6.65362C3.57812 7.33336 4.12916 7.88439 4.80889 7.88439Z" fill="black"/>
      <path d="M8.5003 7.88439C9.18004 7.88439 9.73107 7.33336 9.73107 6.65362C9.73107 5.97389 9.18004 5.42285 8.5003 5.42285C7.82057 5.42285 7.26953 5.97389 7.26953 6.65362C7.26953 7.33336 7.82057 7.88439 8.5003 7.88439Z" fill="black"/>
      <path d="M12.1956 7.88439C12.8753 7.88439 13.4264 7.33336 13.4264 6.65362C13.4264 5.97389 12.8753 5.42285 12.1956 5.42285C11.5159 5.42285 10.9648 5.97389 10.9648 6.65362C10.9648 7.33336 11.5159 7.88439 12.1956 7.88439Z" fill="black"/>
    </g>
  </g>
  <defs>
    <clipPath id="clip0_131_744">
      <rect width="16" height="16" fill="white" transform="translate(0.5 0.5)"/>
    </clipPath>
    <clipPath id="clip1_131_744">
      <rect width="16" height="16" fill="white" transform="translate(0.5 0.5)"/>
    </clipPath>
  </defs>
</svg>
