<svg width="16" height="16" viewBox="0 0 16 16" fill="none" xmlns="http://www.w3.org/2000/svg">
  <g clip-path="url(#clip0_80_14150)">
    <path d="M4.57145 2.85742H14.2857C15.2325 2.85742 16 3.62493 16 4.57171V14.286C16 15.2327 15.2325 16.0003 14.2857 16.0003H4.57145C3.62467 16.0003 2.85716 15.2327 2.85716 14.286V4.57171C2.85716 3.62493 3.62467 2.85742 4.57145 2.85742ZM4.00001 14.286C4.00001 14.6016 4.25584 14.8574 4.57145 14.8574H14.2857C14.6013 14.8574 14.8572 14.6016 14.8572 14.286V4.57171C14.8572 4.2561 14.6013 4.00027 14.2857 4.00027H4.57145C4.25584 4.00027 4.00001 4.2561 4.00001 4.57171V14.286Z" fill="#CDCDCD"/>
    <path d="M1.7143 0H12C12.9468 0 13.7143 0.767511 13.7143 1.71428C13.7143 2.02989 13.4585 2.28572 13.1429 2.28572C12.8273 2.28572 12.5714 2.02989 12.5714 1.71428C12.5714 1.39868 12.3156 1.14285 12 1.14285H1.7143C1.3987 1.14285 1.14286 1.39868 1.14286 1.71428V12C1.14286 12.3156 1.3987 12.5714 1.7143 12.5714C2.02991 12.5714 2.28574 12.8273 2.28574 13.1429C2.28574 13.4585 2.02991 13.7143 1.7143 13.7143C0.767528 13.7143 1.70299e-05 12.9468 1.70299e-05 12V1.71428C1.70299e-05 0.767511 0.767528 0 1.7143 0Z" fill="#CDCDCD"/>
  </g>
  <defs>
    <clipPath id="clip0_80_14150">
      <rect width="16" height="16" fill="white" transform="matrix(-1 0 0 1 16 0)"/>
    </clipPath>
  </defs>
</svg>
