<svg width="16" height="17" viewBox="0 0 16 17" fill="none" xmlns="http://www.w3.org/2000/svg">
  <g clip-path="url(#clip0_80_15008)">
    <path d="M4.57144 3.35742H14.2857C15.2325 3.35742 16 4.12493 16 5.07171V14.786C16 15.7327 15.2325 16.5003 14.2857 16.5003H4.57144C3.62467 16.5003 2.85716 15.7327 2.85716 14.786V5.07171C2.85716 4.12493 3.62467 3.35742 4.57144 3.35742ZM4.00001 14.786C4.00001 15.1016 4.25584 15.3574 4.57144 15.3574H14.2857C14.6013 15.3574 14.8572 15.1016 14.8572 14.786V5.07171C14.8572 4.7561 14.6013 4.50027 14.2857 4.50027H4.57144C4.25584 4.50027 4.00001 4.7561 4.00001 5.07171V14.786Z" fill="white"/>
    <path d="M1.71429 0.5H12C12.9468 0.5 13.7143 1.26751 13.7143 2.21428C13.7143 2.52989 13.4584 2.78572 13.1428 2.78572C12.8272 2.78572 12.5714 2.52989 12.5714 2.21428C12.5714 1.89868 12.3156 1.64285 12 1.64285H1.71429C1.39868 1.64285 1.14285 1.89868 1.14285 2.21428V12.5C1.14285 12.8156 1.39868 13.0714 1.71429 13.0714C2.02989 13.0714 2.28573 13.3273 2.28573 13.6429C2.28573 13.9585 2.02989 14.2143 1.71429 14.2143C0.767512 14.2143 9.53674e-07 13.4468 9.53674e-07 12.5V2.21428C9.53674e-07 1.26751 0.767512 0.5 1.71429 0.5Z" fill="white"/>
  </g>
  <defs>
    <clipPath id="clip0_80_15008">
      <rect width="16" height="16" fill="white" transform="matrix(-1 0 0 1 16 0.5)"/>
    </clipPath>
  </defs>
</svg>
