<svg width="16" height="16" viewBox="0 0 16 16" fill="none" xmlns="http://www.w3.org/2000/svg">
  <g clip-path="url(#clip0_131_2703)">
    <path d="M13.625 1.9375H10.8431L10.5355 0.968032L10.5334 0.961532C10.4403 0.68139 10.2613 0.437709 10.0218 0.265101C9.78228 0.0924936 9.49449 -0.000264994 9.19928 5.8123e-07H6.80072C6.50551 -0.000267911 6.21772 0.09249 5.97823 0.265099C5.73874 0.437707 5.55973 0.681389 5.46663 0.961532L5.46453 0.968032L5.15694 1.9375H2.375C1.59959 1.9375 0.96875 2.56834 0.96875 3.34375V4.28125C0.96875 4.54013 1.17862 4.75 1.4375 4.75H1.94341L2.76781 14.7173L2.76816 14.7211C2.83447 15.4502 3.43656 16 4.16862 16H11.8313C12.5634 16 13.1655 15.4502 13.2318 14.7211L13.2322 14.7173L14.0566 4.75H14.5625C14.8214 4.75 15.0312 4.54013 15.0312 4.28125V3.34375C15.0312 2.56834 14.4004 1.9375 13.625 1.9375ZM6.35691 1.25534C6.38835 1.16261 6.44808 1.08206 6.5277 1.02505C6.60731 0.968031 6.7028 0.937413 6.80072 0.937501H9.19928C9.29721 0.937403 9.3927 0.968018 9.47231 1.02504C9.55193 1.08205 9.61166 1.1626 9.64309 1.25534L9.8595 1.9375H6.1405L6.35691 1.25534ZM12.298 14.6377C12.2876 14.7541 12.2339 14.8623 12.1474 14.941C12.061 15.0197 11.9482 15.063 11.8314 15.0625H4.16862C4.05177 15.063 3.93898 15.0197 3.85256 14.941C3.76614 14.8623 3.71239 14.7541 3.70194 14.6377L2.88412 4.75H13.1159L12.298 14.6377ZM14.0938 3.8125H1.90625V3.34375C1.90625 3.08528 2.11653 2.875 2.375 2.875H10.4968C10.4978 2.875 10.4988 2.87513 10.4999 2.87513C10.5009 2.87513 10.502 2.875 10.5031 2.875H13.625C13.8835 2.875 14.0938 3.08528 14.0938 3.34375V3.8125Z" fill="#FF3333"/>
    <path d="M5.1875 5.6875C4.92862 5.6875 4.71875 5.89737 4.71875 6.15625V13.6562C4.71875 13.9151 4.92862 14.125 5.1875 14.125C5.44638 14.125 5.65625 13.9151 5.65625 13.6562V6.15625C5.65625 5.89737 5.44638 5.6875 5.1875 5.6875ZM8 5.6875C7.74113 5.6875 7.53125 5.89737 7.53125 6.15625V13.6562C7.53125 13.9151 7.74113 14.125 8 14.125C8.25887 14.125 8.46875 13.9151 8.46875 13.6562V6.15625C8.46875 5.89737 8.25887 5.6875 8 5.6875ZM10.8125 5.6875C10.5536 5.6875 10.3438 5.89737 10.3438 6.15625V13.6562C10.3438 13.9151 10.5536 14.125 10.8125 14.125C11.0714 14.125 11.2812 13.9151 11.2812 13.6562V6.15625C11.2812 5.89737 11.0714 5.6875 10.8125 5.6875Z" fill="#FF3333"/>
  </g>
  <defs>
    <clipPath id="clip0_131_2703">
      <rect width="16" height="16" fill="white"/>
    </clipPath>
  </defs>
</svg>
