<svg width="24" height="24" viewBox="0 0 24 24" fill="none" xmlns="http://www.w3.org/2000/svg">
    <g clip-path="url(#clip0_4013_3219)">
        <path d="M3.34866 18.0831C2.82279 18.8718 1.63964 18.0831 2.16547 17.2943L4.04682 14.4723C2.46892 13.3667 1.11854 11.93 0.101208 10.2334C0.0349811 10.1229 0 9.99653 0 9.86774C0 9.73895 0.0349811 9.61257 0.101208 9.50211C2.5896 5.35206 7.07067 2.75781 12 2.75781C16.9293 2.75781 21.4104 5.35206 23.8988 9.50211C23.965 9.61257 24 9.73895 24 9.86774C24 9.99653 23.965 10.1229 23.8988 10.2334C22.8815 11.93 21.5311 13.3667 19.9532 14.4723L21.8345 17.2943C22.0523 17.621 21.964 18.0625 21.6373 18.2803C21.3106 18.4981 20.8691 18.4098 20.6513 18.0831L18.7478 15.2277C16.9268 16.2426 14.87 16.8499 12.711 16.9596V20.5326C12.711 20.9253 12.3927 21.2436 12 21.2436C11.6073 21.2436 11.289 20.9253 11.289 20.5326V16.9596C9.12998 16.8499 7.07322 16.2426 5.25221 15.2277L3.34866 18.0831ZM12 4.17982C7.72209 4.17982 3.82166 6.35588 1.54861 9.86779C3.82166 13.3797 7.72209 15.5558 12 15.5558C16.2779 15.5558 20.1783 13.3797 22.4514 9.86779C20.1783 6.35584 16.2779 4.17982 12 4.17982Z" fill="#999999"/>
    </g>
    <defs>
        <clipPath id="clip0_4013_3219">
            <rect width="24" height="24" fill="white"/>
        </clipPath>
    </defs>
</svg>
