<svg width="24" height="24" viewBox="0 0 24 24" fill="none" xmlns="http://www.w3.org/2000/svg">
    <g clip-path="url(#clip0_4014_3294)">
        <path d="M23.8686 13.2851C22.9466 12.1278 21.9151 11.0677 20.7894 10.1205L22.4978 8.36233C22.6056 8.2433 22.6642 8.08586 22.6614 7.92319C22.6587 7.76052 22.5946 7.60531 22.4828 7.49027C22.371 7.37523 22.2202 7.30933 22.0622 7.30646C21.9041 7.30359 21.7511 7.36397 21.6354 7.47488L19.8213 9.34186C17.8851 7.88512 15.3875 6.55814 12.6093 6.36977V3.62791C12.6093 3.46138 12.5451 3.30167 12.4306 3.18391C12.3162 3.06615 12.161 3 11.9992 3C11.8374 3 11.6822 3.06615 11.5678 3.18391C11.4533 3.30167 11.3891 3.46138 11.3891 3.62791V6.36977C8.61085 6.54558 6.10112 7.8893 4.18119 9.34605L2.36296 7.47488C2.2473 7.36397 2.09431 7.30359 1.93625 7.30646C1.77818 7.30933 1.62736 7.37523 1.51557 7.49027C1.40378 7.60531 1.33975 7.76052 1.33696 7.92319C1.33417 8.08586 1.39284 8.2433 1.50062 8.36233L3.20903 10.1205C2.08326 11.0677 1.05178 12.1278 0.129824 13.2851C0.0457079 13.3956 0 13.5319 0 13.6723C0 13.8127 0.0457079 13.949 0.129824 14.0595C0.345409 14.3442 5.49097 21 11.9992 21C18.5074 21 23.653 14.3442 23.8686 14.0637C23.9537 13.9529 24 13.8157 24 13.6744C24 13.5331 23.9537 13.396 23.8686 13.2851ZM11.9992 19.7442C6.94312 19.7442 2.59075 15.0684 1.42333 13.6744C2.60702 12.2805 6.95939 7.60465 11.9992 7.60465C17.039 7.60465 21.4077 12.2805 22.5751 13.6744C21.4077 15.0684 17.0553 19.7442 11.9992 19.7442Z" fill="#999999"/>
        <path d="M12 9C11.0729 9 10.1666 9.27492 9.39577 9.78999C8.62491 10.3051 8.0241 11.0371 7.66932 11.8937C7.31453 12.7502 7.2217 13.6927 7.40257 14.602C7.58344 15.5113 8.02988 16.3465 8.68544 17.0021C9.341 17.6576 10.1762 18.1041 11.0855 18.2849C11.9948 18.4658 12.9373 18.373 13.7938 18.0182C14.6504 17.6634 15.3824 17.0626 15.8975 16.2917C16.4126 15.5209 16.6875 14.6146 16.6875 13.6875C16.6865 12.4446 16.1923 11.2529 15.3135 10.374C14.4346 9.49517 13.2429 9.00099 12 9ZM12 17.25C11.2954 17.25 10.6066 17.0411 10.0208 16.6496C9.43493 16.2582 8.97832 15.7018 8.70868 15.0508C8.43904 14.3998 8.36849 13.6835 8.50595 12.9925C8.64341 12.3014 8.98271 11.6667 9.48093 11.1684C9.97916 10.6702 10.6139 10.3309 11.305 10.1935C11.9961 10.056 12.7124 10.1265 13.3633 10.3962C14.0143 10.6658 14.5707 11.1224 14.9621 11.7083C15.3536 12.2941 15.5625 12.9829 15.5625 13.6875C15.5615 14.632 15.1859 15.5376 14.518 16.2055C13.8501 16.8734 12.9445 17.249 12 17.25Z" fill="#999999"/>
    </g>
    <defs>
        <clipPath id="clip0_4014_3294">
            <rect width="24" height="24" fill="white"/>
        </clipPath>
    </defs>
</svg>
