<svg width="17" height="16" viewBox="0 0 17 16" fill="none" xmlns="http://www.w3.org/2000/svg">
  <g clip-path="url(#clip0_2010_610)">
    <path d="M8.5 12.6094C8.93147 12.6094 9.28125 12.2596 9.28125 11.8281C9.28125 11.3967 8.93147 11.0469 8.5 11.0469C8.06853 11.0469 7.71875 11.3967 7.71875 11.8281C7.71875 12.2596 8.06853 12.6094 8.5 12.6094Z" fill="#0D0911"/>
    <path d="M8.5 0C4.07863 0 0.5 3.57803 0.5 8C0.5 12.4214 4.07803 16 8.5 16C12.9214 16 16.5 12.422 16.5 8C16.5 3.57863 12.922 0 8.5 0ZM8.5 14.75C4.76947 14.75 1.75 11.731 1.75 8C1.75 4.26947 4.76897 1.25 8.5 1.25C12.2305 1.25 15.25 4.26897 15.25 8C15.25 11.7305 12.231 14.75 8.5 14.75Z" fill="#0D0911"/>
    <path d="M8.5 4.01562C7.1215 4.01562 6 5.13713 6 6.51562C6 6.86081 6.27981 7.14062 6.625 7.14062C6.97019 7.14062 7.25 6.86081 7.25 6.51562C7.25 5.82638 7.81075 5.26562 8.5 5.26562C9.18925 5.26562 9.75 5.82638 9.75 6.51562C9.75 7.20487 9.18925 7.76562 8.5 7.76562C8.15481 7.76562 7.875 8.04544 7.875 8.39062V9.95312C7.875 10.2983 8.15481 10.5781 8.5 10.5781C8.84519 10.5781 9.125 10.2983 9.125 9.95312V8.93653C10.2021 8.65831 11 7.67841 11 6.51562C11 5.13713 9.8785 4.01562 8.5 4.01562Z" fill="#0D0911"/>
  </g>
  <defs>
    <clipPath id="clip0_2010_610">
      <rect width="16" height="16" fill="white" transform="translate(0.5)"/>
    </clipPath>
  </defs>
</svg>
