<svg width="16" height="16" viewBox="0 0 16 16" fill="none" xmlns="http://www.w3.org/2000/svg">
  <g clip-path="url(#clip0_80_14215)">
    <path d="M8.37496 3.74285C9.40852 3.74285 10.2464 2.90498 10.2464 1.87142C10.2464 0.837865 9.40852 0 8.37496 0C7.3414 0 6.50354 0.837865 6.50354 1.87142C6.50354 2.90498 7.3414 3.74285 8.37496 3.74285Z" fill="#6B686D"/>
    <path d="M8.37493 15.9994C8.995 15.9994 9.49766 15.4967 9.49766 14.8766C9.49766 14.2566 8.995 13.7539 8.37493 13.7539C7.75486 13.7539 7.2522 14.2566 7.2522 14.8766C7.2522 15.4967 7.75486 15.9994 8.37493 15.9994Z" fill="#6B686D"/>
    <path d="M3.7765 5.4606C4.70677 5.4606 5.46091 4.70647 5.46091 3.7762C5.46091 2.84593 4.70677 2.0918 3.7765 2.0918C2.84623 2.0918 2.0921 2.84593 2.0921 3.7762C2.0921 4.70647 2.84623 5.4606 3.7765 5.4606Z" fill="#6B686D"/>
    <path d="M12.9734 13.9066C13.4901 13.9066 13.9091 13.4876 13.9091 12.9709C13.9091 12.4541 13.4901 12.0352 12.9734 12.0352C12.4566 12.0352 12.0377 12.4541 12.0377 12.9709C12.0377 13.4876 12.4566 13.9066 12.9734 13.9066Z" fill="#6B686D"/>
    <path d="M1.87171 9.8705C2.69836 9.8705 3.36849 9.20037 3.36849 8.37373C3.36849 7.54708 2.69836 6.87695 1.87171 6.87695C1.04507 6.87695 0.374939 7.54708 0.374939 8.37373C0.374939 9.20037 1.04507 9.8705 1.87171 9.8705Z" fill="#6B686D"/>
    <path d="M14.8775 9.12117C15.2907 9.12117 15.6256 8.78624 15.6256 8.37308C15.6256 7.95993 15.2907 7.625 14.8775 7.625C14.4644 7.625 14.1295 7.95993 14.1295 8.37308C14.1295 8.78624 14.4644 9.12117 14.8775 9.12117Z" fill="#6B686D"/>
    <path d="M2.85053 12.0464C2.72881 12.168 2.63224 12.3123 2.56635 12.4712C2.50047 12.6301 2.46655 12.8004 2.46655 12.9724C2.46655 13.1444 2.50047 13.3148 2.56635 13.4736C2.63224 13.6325 2.72881 13.7769 2.85053 13.8984C2.97207 14.0201 3.11641 14.1167 3.2753 14.1826C3.4342 14.2485 3.60452 14.2824 3.77653 14.2824C3.94854 14.2824 4.11887 14.2485 4.27776 14.1826C4.43665 14.1167 4.58099 14.0201 4.70253 13.8984C4.82425 13.7769 4.92082 13.6325 4.98671 13.4736C5.0526 13.3148 5.08651 13.1444 5.08651 12.9724C5.08651 12.8004 5.0526 12.6301 4.98671 12.4712C4.92082 12.3123 4.82425 12.168 4.70253 12.0464C4.58136 11.924 4.43714 11.8269 4.2782 11.7606C4.11925 11.6943 3.94875 11.6602 3.77653 11.6602C3.60432 11.6602 3.43381 11.6943 3.27487 11.7606C3.11592 11.8269 2.9717 11.924 2.85053 12.0464Z" fill="#6B686D"/>
    <path d="M12.9727 4.33697C13.2826 4.33697 13.5338 4.08577 13.5338 3.77591C13.5338 3.46604 13.2826 3.21484 12.9727 3.21484C12.6629 3.21484 12.4117 3.46604 12.4117 3.77591C12.4117 4.08577 12.6629 4.33697 12.9727 4.33697Z" fill="#6B686D"/>
  </g>
  <defs>
    <clipPath id="clip0_80_14215">
      <rect width="16" height="16" fill="white"/>
    </clipPath>
  </defs>
</svg>
