<svg width="30" height="30" viewBox="0 0 30 30" fill="none" xmlns="http://www.w3.org/2000/svg">
  <g clip-path="url(#clip0_80_15073)">
    <path d="M15.703 7.01784C17.6409 7.01784 19.2119 5.44684 19.2119 3.50892C19.2119 1.571 17.6409 0 15.703 0C13.7651 0 12.1941 1.571 12.1941 3.50892C12.1941 5.44684 13.7651 7.01784 15.703 7.01784Z" fill="white"/>
    <path d="M15.703 29.9993C16.8657 29.9993 17.8081 29.0568 17.8081 27.8942C17.8081 26.7316 16.8657 25.7891 15.703 25.7891C14.5404 25.7891 13.5979 26.7316 13.5979 27.8942C13.5979 29.0568 14.5404 29.9993 15.703 29.9993Z" fill="white"/>
    <path d="M7.08098 10.2384C8.82524 10.2384 10.2392 8.82439 10.2392 7.08013C10.2392 5.33587 8.82524 3.92188 7.08098 3.92188C5.33673 3.92188 3.92273 5.33587 3.92273 7.08013C3.92273 8.82439 5.33673 10.2384 7.08098 10.2384Z" fill="white"/>
    <path d="M24.325 26.0773C25.294 26.0773 26.0795 25.2918 26.0795 24.3228C26.0795 23.3539 25.294 22.5684 24.325 22.5684C23.3561 22.5684 22.5706 23.3539 22.5706 24.3228C22.5706 25.2918 23.3561 26.0773 24.325 26.0773Z" fill="white"/>
    <path d="M3.50945 18.5094C5.05941 18.5094 6.31591 17.2529 6.31591 15.7029C6.31591 14.153 5.05941 12.8965 3.50945 12.8965C1.95949 12.8965 0.703003 14.153 0.703003 15.7029C0.703003 17.2529 1.95949 18.5094 3.50945 18.5094Z" fill="white"/>
    <path d="M27.8955 17.1041C28.6701 17.1041 29.2981 16.4762 29.2981 15.7015C29.2981 14.9268 28.6701 14.2988 27.8955 14.2988C27.1208 14.2988 26.4928 14.9268 26.4928 15.7015C26.4928 16.4762 27.1208 17.1041 27.8955 17.1041Z" fill="white"/>
    <path d="M5.34472 22.5875C5.11649 22.8154 4.93542 23.0861 4.81188 23.384C4.68834 23.6819 4.62476 24.0013 4.62476 24.3238C4.62476 24.6463 4.68834 24.9657 4.81188 25.2636C4.93542 25.5615 5.11649 25.8321 5.34472 26.06C5.5726 26.2883 5.84324 26.4693 6.14117 26.5929C6.43909 26.7164 6.75844 26.78 7.08097 26.78C7.40349 26.78 7.72284 26.7164 8.02076 26.5929C8.31869 26.4693 8.58933 26.2883 8.81721 26.06C9.04544 25.8321 9.22651 25.5615 9.35005 25.2636C9.47359 24.9657 9.53717 24.6463 9.53717 24.3238C9.53717 24.0013 9.47359 23.6819 9.35005 23.384C9.22651 23.0861 9.04544 22.8154 8.81721 22.5875C8.59002 22.3581 8.3196 22.1759 8.02159 22.0516C7.72357 21.9273 7.40387 21.8633 7.08097 21.8633C6.75806 21.8633 6.43836 21.9273 6.14034 22.0516C5.84233 22.1759 5.57191 22.3581 5.34472 22.5875Z" fill="white"/>
    <path d="M24.3238 8.13133C24.9048 8.13133 25.3758 7.66034 25.3758 7.07934C25.3758 6.49834 24.9048 6.02734 24.3238 6.02734C23.7428 6.02734 23.2719 6.49834 23.2719 7.07934C23.2719 7.66034 23.7428 8.13133 24.3238 8.13133Z" fill="white"/>
  </g>
  <defs>
    <clipPath id="clip0_80_15073">
      <rect width="30" height="30" fill="white"/>
    </clipPath>
  </defs>
</svg>
