<svg width="140" height="27" viewBox="0 0 140 27" fill="none" xmlns="http://www.w3.org/2000/svg">
  <path d="M36.9248 26.6666C35.0846 26.6666 33.6149 26.1789 32.5155 25.2034C31.4401 24.228 30.9023 22.9477 30.9023 21.3626C30.9023 19.9969 31.213 18.8995 31.8344 18.0704C32.4558 17.2413 33.3161 16.6072 34.4155 16.1682C35.5148 15.7293 36.9487 15.3513 38.7172 15.0343C39.0518 14.9611 39.3744 14.9001 39.6851 14.8514C40.5933 14.6563 41.2863 14.4734 41.7643 14.3027C42.2662 14.1076 42.6366 13.8515 42.8756 13.5345C43.1385 13.2175 43.2699 12.7907 43.2699 12.2542C43.2699 11.4251 42.9832 10.7666 42.4096 10.2789C41.836 9.76679 40.8562 9.51073 39.47 9.51073C38.3229 9.51073 37.4148 9.63266 36.7456 9.87653C36.1003 10.1204 35.6343 10.5228 35.3475 11.0837C35.0607 11.6202 34.8815 12.3518 34.8098 13.2784H31.7985C31.8941 11.3519 32.5753 9.81556 33.8419 8.6694C35.1085 7.52323 37.0204 6.95015 39.5776 6.95015C41.4895 6.95015 43.0429 7.42569 44.2378 8.37676C45.4567 9.32783 46.0661 10.8642 46.0661 12.9858V21.9478C46.0661 22.7038 46.1378 23.2647 46.2812 23.6305C46.4246 23.9719 46.6636 24.1426 46.9981 24.1426C47.1415 24.1182 47.2849 24.106 47.4283 24.106V26.1545C46.9026 26.2764 46.4365 26.3374 46.0302 26.3374C45.1938 26.3374 44.5485 26.1301 44.0944 25.7156C43.6643 25.2766 43.4014 24.5084 43.3058 23.411H43.2341C42.6127 24.4597 41.7763 25.2644 40.7247 25.8253C39.6732 26.3862 38.4065 26.6666 36.9248 26.6666ZM37.2116 24.106C38.3827 24.106 39.4222 23.9231 40.3304 23.5574C41.2624 23.1916 41.9794 22.6185 42.4813 21.8381C43.0071 21.0577 43.2699 20.0945 43.2699 18.9483V15.9853C43.031 16.2536 42.5291 16.5097 41.7643 16.7535C41.0235 16.9974 40.0914 17.2291 38.9682 17.4485C37.7254 17.6924 36.7456 17.9728 36.0286 18.2899C35.3117 18.6069 34.7739 18.9971 34.4155 19.4604C34.0809 19.9238 33.9136 20.509 33.9136 21.2162C33.9136 22.1673 34.1765 22.8867 34.7022 23.3745C35.228 23.8622 36.0645 24.106 37.2116 24.106Z" fill="white"/>
  <path d="M49.1305 0H51.9984V26.1545H49.1305V0Z" fill="white"/>
  <path d="M54.7332 7.49885H57.6011V26.1545H54.7332V7.49885ZM54.4464 0.365796H57.8878V3.87745H54.4464V0.365796Z" fill="white"/>
  <path d="M60.3359 7.49885H63.2037V16.8998L62.0207 16.7901L71.7356 7.49885H75.177L62.1641 19.7165L63.2037 17.2291V26.1545H60.3359V7.49885ZM65.5697 15.3635L67.5772 13.6808L75.9298 26.1545H72.5242L65.5697 15.3635Z" fill="white"/>
  <path d="M80.7253 26.6666C78.8851 26.6666 77.4154 26.1789 76.316 25.2034C75.2406 24.228 74.7029 22.9477 74.7029 21.3626C74.7029 19.9969 75.0135 18.8995 75.6349 18.0704C76.2563 17.2413 77.1166 16.6072 78.216 16.1682C79.3153 15.7293 80.7492 15.3513 82.5177 15.0343C82.8523 14.9611 83.175 14.9001 83.4856 14.8514C84.3938 14.6563 85.0869 14.4734 85.5648 14.3027C86.0667 14.1076 86.4371 13.8515 86.6761 13.5345C86.939 13.2175 87.0704 12.7907 87.0704 12.2542C87.0704 11.4251 86.7837 10.7666 86.2101 10.2789C85.6365 9.76679 84.6567 9.51073 83.2706 9.51073C82.1234 9.51073 81.2153 9.63266 80.5461 9.87653C79.9008 10.1204 79.4348 10.5228 79.148 11.0837C78.8612 11.6202 78.682 12.3518 78.6103 13.2784H75.5991C75.6947 11.3519 76.3758 9.81556 77.6424 8.6694C78.909 7.52323 80.8209 6.95015 83.3781 6.95015C85.29 6.95015 86.8434 7.42569 88.0383 8.37676C89.2572 9.32783 89.8666 10.8642 89.8666 12.9858V21.9478C89.8666 22.7038 89.9383 23.2647 90.0817 23.6305C90.2251 23.9719 90.4641 24.1426 90.7987 24.1426C90.9421 24.1182 91.0854 24.106 91.2288 24.106V26.1545C90.7031 26.2764 90.237 26.3374 89.8308 26.3374C88.9943 26.3374 88.349 26.1301 87.895 25.7156C87.4648 25.2766 87.2019 24.5084 87.1063 23.411H87.0346C86.4132 24.4597 85.5768 25.2644 84.5252 25.8253C83.4737 26.3862 82.2071 26.6666 80.7253 26.6666ZM81.0121 24.106C82.1832 24.106 83.2228 23.9231 84.1309 23.5574C85.063 23.1916 85.7799 22.6185 86.2818 21.8381C86.8076 21.0577 87.0704 20.0945 87.0704 18.9483V15.9853C86.8315 16.2536 86.3296 16.5097 85.5648 16.7535C84.824 16.9974 83.8919 17.2291 82.7687 17.4485C81.5259 17.6924 80.5461 17.9728 79.8291 18.2899C79.1122 18.6069 78.5745 18.9971 78.216 19.4604C77.8814 19.9238 77.7141 20.509 77.7141 21.2162C77.7141 22.1673 77.977 22.8867 78.5028 23.3745C79.0285 23.8622 79.865 24.106 81.0121 24.106Z" fill="white"/>
  <path d="M99.8497 26.6666C98.129 26.6666 96.6593 26.3862 95.4404 25.8253C94.2216 25.24 93.2895 24.4353 92.6443 23.411C92.0229 22.3868 91.6883 21.2284 91.6405 19.936H94.6518C94.6996 20.7407 94.9027 21.4601 95.2612 22.0942C95.6197 22.7038 96.1693 23.1916 96.9102 23.5574C97.675 23.9231 98.6548 24.106 99.8497 24.106C101.451 24.106 102.574 23.8134 103.219 23.2281C103.865 22.6185 104.187 21.8869 104.187 21.0333C104.187 20.3261 103.996 19.7653 103.614 19.3507C103.231 18.9361 102.765 18.6313 102.216 18.4362C101.69 18.2411 100.961 18.046 100.029 17.8509C99.79 17.8021 99.551 17.7534 99.312 17.7046C99.1686 17.6558 99.0133 17.6192 98.846 17.5949C97.5077 17.2778 96.3964 16.9486 95.5121 16.6072C94.6279 16.2414 93.8751 15.7049 93.2537 14.9977C92.6562 14.2905 92.3575 13.3638 92.3575 12.2176C92.3575 11.169 92.6204 10.2545 93.1461 9.47415C93.6719 8.6694 94.4367 8.05974 95.4404 7.64516C96.4442 7.20621 97.6391 6.98673 99.0252 6.98673C100.555 6.98673 101.857 7.24279 102.933 7.7549C104.032 8.26702 104.868 8.97423 105.442 9.87653C106.04 10.7544 106.386 11.7421 106.482 12.8395H103.47C103.279 11.8884 102.873 11.108 102.252 10.4984C101.63 9.86434 100.567 9.54731 99.0611 9.54731C97.8183 9.54731 96.8863 9.77898 96.2649 10.2423C95.6675 10.7057 95.3687 11.3275 95.3687 12.1079C95.3687 12.6932 95.536 13.1687 95.8706 13.5345C96.2291 13.8759 96.6712 14.1442 97.197 14.3393C97.7228 14.51 98.4517 14.6929 99.3837 14.888C99.5749 14.9123 99.8617 14.9733 100.244 15.0709C101.678 15.4123 102.861 15.7659 103.793 16.1317C104.749 16.4975 105.55 17.0705 106.195 17.8509C106.864 18.6069 107.199 19.6311 107.199 20.9236C107.199 22.0942 106.912 23.1184 106.338 23.9963C105.765 24.8498 104.916 25.5083 103.793 25.9716C102.694 26.435 101.379 26.6666 99.8497 26.6666Z" fill="white"/>
  <path d="M115.605 26.6666C113.884 26.6666 112.414 26.3862 111.195 25.8253C109.977 25.24 109.045 24.4353 108.399 23.411C107.778 22.3868 107.443 21.2284 107.395 19.936H110.407C110.455 20.7407 110.658 21.4601 111.016 22.0942C111.375 22.7038 111.924 23.1916 112.665 23.5574C113.43 23.9231 114.41 24.106 115.605 24.106C117.206 24.106 118.329 23.8134 118.974 23.2281C119.62 22.6185 119.942 21.8869 119.942 21.0333C119.942 20.3261 119.751 19.7653 119.369 19.3507C118.986 18.9361 118.52 18.6313 117.971 18.4362C117.445 18.2411 116.716 18.046 115.784 17.8509C115.545 17.8021 115.306 17.7534 115.067 17.7046C114.924 17.6558 114.768 17.6192 114.601 17.5949C113.263 17.2778 112.151 16.9486 111.267 16.6072C110.383 16.2414 109.63 15.7049 109.009 14.9977C108.411 14.2905 108.112 13.3638 108.112 12.2176C108.112 11.169 108.375 10.2545 108.901 9.47415C109.427 8.6694 110.192 8.05974 111.195 7.64516C112.199 7.20621 113.394 6.98673 114.78 6.98673C116.31 6.98673 117.612 7.24279 118.688 7.7549C119.787 8.26702 120.623 8.97423 121.197 9.87653C121.794 10.7544 122.141 11.7421 122.237 12.8395H119.225C119.034 11.8884 118.628 11.108 118.007 10.4984C117.385 9.86434 116.322 9.54731 114.816 9.54731C113.573 9.54731 112.641 9.77898 112.02 10.2423C111.422 10.7057 111.124 11.3275 111.124 12.1079C111.124 12.6932 111.291 13.1687 111.626 13.5345C111.984 13.8759 112.426 14.1442 112.952 14.3393C113.478 14.51 114.207 14.6929 115.139 14.888C115.33 14.9123 115.617 14.9733 115.999 15.0709C117.433 15.4123 118.616 15.7659 119.548 16.1317C120.504 16.4975 121.305 17.0705 121.95 17.8509C122.619 18.6069 122.954 19.6311 122.954 20.9236C122.954 22.0942 122.667 23.1184 122.093 23.9963C121.52 24.8498 120.671 25.5083 119.548 25.9716C118.449 26.435 117.134 26.6666 115.605 26.6666Z" fill="white"/>
  <path d="M129.496 26.6666C127.655 26.6666 126.186 26.1789 125.086 25.2034C124.011 24.228 123.473 22.9477 123.473 21.3626C123.473 19.9969 123.784 18.8995 124.405 18.0704C125.027 17.2413 125.887 16.6072 126.986 16.1682C128.086 15.7293 129.519 15.3513 131.288 15.0343C131.623 14.9611 131.945 14.9001 132.256 14.8514C133.164 14.6563 133.857 14.4734 134.335 14.3027C134.837 14.1076 135.207 13.8515 135.446 13.5345C135.709 13.2175 135.841 12.7907 135.841 12.2542C135.841 11.4251 135.554 10.7666 134.98 10.2789C134.407 9.76679 133.427 9.51073 132.041 9.51073C130.894 9.51073 129.985 9.63266 129.316 9.87653C128.671 10.1204 128.205 10.5228 127.918 11.0837C127.631 11.6202 127.452 12.3518 127.381 13.2784H124.369C124.465 11.3519 125.146 9.81556 126.413 8.6694C127.679 7.52323 129.591 6.95015 132.148 6.95015C134.06 6.95015 135.614 7.42569 136.809 8.37676C138.027 9.32783 138.637 10.8642 138.637 12.9858V21.9478C138.637 22.7038 138.709 23.2647 138.852 23.6305C138.995 23.9719 139.234 24.1426 139.569 24.1426C139.712 24.1182 139.856 24.106 139.999 24.106V26.1545C139.473 26.2764 139.007 26.3374 138.601 26.3374C137.765 26.3374 137.119 26.1301 136.665 25.7156C136.235 25.2766 135.972 24.5084 135.877 23.411H135.805C135.183 24.4597 134.347 25.2644 133.295 25.8253C132.244 26.3862 130.977 26.6666 129.496 26.6666ZM129.782 24.106C130.953 24.106 131.993 23.9231 132.901 23.5574C133.833 23.1916 134.55 22.6185 135.052 21.8381C135.578 21.0577 135.841 20.0945 135.841 18.9483V15.9853C135.602 16.2536 135.1 16.5097 134.335 16.7535C133.594 16.9974 132.662 17.2291 131.539 17.4485C130.296 17.6924 129.316 17.9728 128.599 18.2899C127.882 18.6069 127.345 18.9971 126.986 19.4604C126.652 19.9238 126.484 20.509 126.484 21.2162C126.484 22.1673 126.747 22.8867 127.273 23.3745C127.799 23.8622 128.635 24.106 129.782 24.106Z" fill="white"/>
  <path fill-rule="evenodd" clip-rule="evenodd" d="M0.734034 3.5638C0 4.99678 0 6.87939 0 10.6446V16.022C0 19.7872 0 21.6698 0.734034 23.1028C1.3526 24.3104 2.32352 25.295 3.5143 25.9223C4.92737 26.6666 6.78382 26.6666 10.4967 26.6666H10.4968H15.7995H15.7995C19.5124 26.6666 21.3689 26.6666 22.7819 25.9223C23.9727 25.295 24.9436 24.3104 25.5622 23.1028C26.2962 21.6698 26.2962 19.7872 26.2962 16.022V10.6446C26.2962 6.87939 26.2962 4.99678 25.5622 3.5638C24.9436 2.35624 23.9727 1.37165 22.7819 0.744373C21.3689 0 19.5124 0 15.7995 0H10.4968C6.78383 0 4.92737 0 3.5143 0.744373C2.32352 1.37165 1.3526 2.35624 0.734034 3.5638ZM18.4648 18.7269C23.9548 13.1596 26.1603 6.36993 23.391 3.56167C20.6218 0.753409 13.9264 2.99001 8.43648 8.55727C2.94656 14.1245 0.741019 20.9142 3.51027 23.7225C6.27953 26.5307 12.9749 24.2941 18.4648 18.7269Z" fill="white"/>
</svg>
