<svg width="16" height="16" viewBox="0 0 16 16" fill="none" xmlns="http://www.w3.org/2000/svg">
  <path fill-rule="evenodd" clip-rule="evenodd" d="M14.7438 13.3144C14.6509 13.4071 14.5388 13.5256 14.4199 13.651C14.1233 13.9658 13.7528 14.3571 13.5205 14.5158C12.2986 15.3509 10.6638 14.9513 9.50748 14.4695C7.98207 13.8339 6.32131 12.6623 4.83013 11.1708C3.33756 9.67928 2.16616 8.01791 1.53058 6.4933C1.04935 5.33665 0.648975 3.70148 1.4841 2.4792C1.64268 2.24678 2.03491 1.87678 2.3493 1.57958C2.47507 1.46107 2.59264 1.3491 2.68561 1.25643C2.85065 1.0922 3.07401 1 3.30684 1C3.53967 1 3.76303 1.0922 3.92808 1.25643L6.1764 3.50422C6.34053 3.66926 6.43267 3.89257 6.43267 4.12535C6.43267 4.35812 6.34053 4.58143 6.1764 4.74648L5.56393 5.35775C5.35938 5.56081 5.22587 5.8245 5.18326 6.10956C5.14065 6.39462 5.19122 6.68582 5.32744 6.93982C6.16986 8.52989 7.47039 9.83027 9.06051 10.6725C9.31445 10.8087 9.60557 10.8592 9.89054 10.8165C10.1755 10.7738 10.4391 10.6402 10.6419 10.4356L11.2529 9.82428C11.418 9.66005 11.6413 9.56785 11.8742 9.56785C12.107 9.56785 12.3303 9.66005 12.4954 9.82428L14.7438 12.0725C14.908 12.2374 15.0001 12.4607 15.0001 12.6934C15.0001 12.9262 14.908 13.1495 14.7438 13.3144Z" fill="#CDCDCD"/>
</svg>
