<svg width="16" height="17" viewBox="0 0 16 17" fill="none" xmlns="http://www.w3.org/2000/svg">
  <g clip-path="url(#clip0_131_2166)">
    <path d="M0.512249 16.5C0.445453 16.5001 0.379304 16.4869 0.31761 16.4613C0.255916 16.4357 0.199893 16.3982 0.152767 16.3508C0.0906998 16.2888 0.0457612 16.2118 0.0223357 16.1273C-0.00108985 16.0427 -0.00220232 15.9536 0.0191068 15.8685L0.974257 12.0346C0.996549 11.9451 1.04275 11.8632 1.10792 11.7979L11.8604 1.04547C12.5876 0.318176 13.7714 0.318176 14.4987 1.04547L15.458 2.00472C16.1853 2.73208 16.1853 3.91591 15.458 4.64311L4.70569 15.3956C4.64045 15.4609 4.55857 15.5071 4.46893 15.5292L0.635129 16.4844C0.595048 16.495 0.553741 16.5002 0.51228 16.5H0.512249ZM1.9268 12.4173L1.21041 15.2924L4.08556 14.576L14.7389 3.92336C15.0693 3.59294 15.0693 3.05429 14.7389 2.72388L13.7796 1.76462C13.4485 1.43357 12.9098 1.43418 12.5801 1.76462L1.9268 12.4173Z" fill="#0D0911"/>
    <path d="M13.442 6.4468C13.3117 6.4468 13.1814 6.39722 13.0824 6.29759L10.2039 3.4197C10.005 3.22082 10.005 2.89861 10.2039 2.69985C10.4027 2.50109 10.7249 2.50109 10.9237 2.69985L13.8023 5.5785C14.0011 5.77726 14.0011 6.09947 13.8023 6.29822C13.7018 6.39722 13.5716 6.4468 13.442 6.4468ZM4.34423 15.5446C4.21394 15.5446 4.08378 15.495 3.98475 15.3953L1.1061 12.5167C0.907342 12.3178 0.907342 11.9956 1.1061 11.7969C1.30486 11.5981 1.6271 11.5981 1.82598 11.7969L4.70451 14.6755C4.90326 14.8743 4.90326 15.1965 4.70451 15.3953C4.65727 15.4427 4.60112 15.4803 4.53928 15.5059C4.47745 15.5315 4.41116 15.5447 4.34423 15.5446Z" fill="black"/>
  </g>
  <defs>
    <clipPath id="clip0_131_2166">
      <rect width="16" height="16" fill="white" transform="translate(0 0.5)"/>
    </clipPath>
  </defs>
</svg>
