<svg width="18" height="18" viewBox="0 0 18 18" fill="none" xmlns="http://www.w3.org/2000/svg">
  <g clip-path="url(#clip0_90_29412)">
    <path d="M9.00034 16.6794C10.5966 16.6794 12.1569 16.2061 13.4842 15.3192C14.8114 14.4324 15.8458 13.172 16.4567 11.6972C17.0675 10.2225 17.2273 8.59979 16.9159 7.03424C16.6045 5.46868 15.8359 4.03063 14.7072 2.90193C13.5785 1.77323 12.1404 1.00457 10.5748 0.693165C9.00929 0.381757 7.38655 0.541583 5.91184 1.15243C4.43712 1.76328 3.17665 2.79772 2.28984 4.12493C1.40302 5.45214 0.929688 7.01252 0.929688 8.60874C0.929687 10.7492 1.77999 12.802 3.29353 14.3156C4.80707 15.8291 6.85987 16.6794 9.00034 16.6794ZM6.5465 9.62636C6.40381 9.62636 6.26695 9.56968 6.16605 9.46877C6.06515 9.36787 6.00846 9.23102 6.00846 9.08832C6.00846 8.94562 6.06515 8.80877 6.16605 8.70786C6.26695 8.60696 6.40381 8.55027 6.5465 8.55027H7.48126V5.06519C7.48126 4.92249 7.53795 4.78564 7.63885 4.68473C7.73976 4.58383 7.87661 4.52714 8.01931 4.52714H9.44225C10.1185 4.52714 10.767 4.79576 11.2451 5.27391C11.7232 5.75205 11.9919 6.40055 11.9919 7.07675C11.9919 7.75295 11.7232 8.40145 11.2451 8.8796C10.767 9.35774 10.1185 9.62636 9.44225 9.62636H8.55735V10.2638H10.9283C11.071 10.2638 11.2079 10.3205 11.3088 10.4214C11.4097 10.5223 11.4664 10.6591 11.4664 10.8018C11.4664 10.9445 11.4097 11.0814 11.3088 11.1823C11.2079 11.2832 11.071 11.3399 10.9283 11.3399H8.55735V12.1552C8.55735 12.2979 8.50066 12.4347 8.39976 12.5356C8.29886 12.6365 8.16201 12.6932 8.01931 12.6932C7.87661 12.6932 7.73976 12.6365 7.63885 12.5356C7.53795 12.4347 7.48126 12.2979 7.48126 12.1552V11.3399H6.5465C6.40381 11.3399 6.26695 11.2832 6.16605 11.1823C6.06515 11.0814 6.00846 10.9445 6.00846 10.8018C6.00846 10.6591 6.06515 10.5223 6.16605 10.4214C6.26695 10.3205 6.40381 10.2638 6.5465 10.2638H7.48126V9.62636H6.5465Z" fill="#3737CC"/>
    <path d="M10.9174 7.07655C10.9169 6.68583 10.7615 6.31126 10.4851 6.03501C10.2088 5.75876 9.83422 5.60341 9.4435 5.60303H8.55859V8.55007H9.4435C9.83422 8.54969 10.2088 8.39434 10.4851 8.11809C10.7615 7.84184 10.9169 7.46727 10.9174 7.07655Z" fill="#3737CC"/>
  </g>
  <defs>
    <clipPath id="clip0_90_29412">
      <rect width="17.2174" height="17.2174" fill="white" transform="translate(0.390625)"/>
    </clipPath>
  </defs>
</svg>
