<svg width="26" height="30" viewBox="0 0 26 30" fill="none" xmlns="http://www.w3.org/2000/svg">
  <path d="M24.0986 3.87096C23.181 3.67948 22.2757 3.42826 21.388 3.11878C20.9653 2.97948 20.4933 2.83323 19.9493 2.66607C17.9129 2.03845 15.9315 1.2304 14.0267 0.25072C13.7074 0.0857963 13.3561 0 13 0C12.6439 0 12.2926 0.0857963 11.9733 0.25072C10.0685 1.2304 8.08708 2.03845 6.05068 2.66607C5.50668 2.83323 5.03468 2.98366 4.61201 3.11878C3.72434 3.42826 2.81902 3.67948 1.90135 3.87096C1.36588 3.97415 0.882127 4.27059 0.5346 4.70851C0.187073 5.14642 -0.00213807 5.69798 1.82286e-05 6.26682V12.7593C0.000644555 15.6783 0.748079 18.5441 2.16494 21.0601C3.58181 23.576 5.6166 25.6505 8.05867 27.0689L11.8653 29.2781C12.2118 29.4802 12.6019 29.5862 12.9987 29.5862C13.3954 29.5862 13.7856 29.4802 14.132 29.2781L17.9413 27.0689C20.3834 25.6505 22.4182 23.576 23.8351 21.0601C25.2519 18.5441 25.9994 15.6783 26 12.7593V6.26682C26.0021 5.69798 25.8129 5.14642 25.4654 4.70851C25.1179 4.27059 24.6341 3.97415 24.0986 3.87096ZM17.7067 11.3705L12.3733 16.9423C12.2807 17.0395 12.1705 17.1166 12.0493 17.1693C11.928 17.2219 11.798 17.249 11.6667 17.249C11.5354 17.249 11.4053 17.2219 11.2841 17.1693C11.1628 17.1166 11.0527 17.0395 10.96 16.9423L8.29334 14.1564C8.1167 13.9584 8.02054 13.6964 8.02511 13.4258C8.02968 13.1551 8.13463 12.8969 8.31784 12.7055C8.50106 12.5141 8.74824 12.4045 9.00731 12.3997C9.26638 12.3949 9.51711 12.4954 9.70667 12.6799L11.6667 14.7261L16.2933 9.89402C16.4829 9.70949 16.7336 9.60903 16.9927 9.6138C17.2518 9.61858 17.4989 9.72822 17.6822 9.91963C17.8654 10.111 17.9703 10.3693 17.9749 10.6399C17.9795 10.9106 17.8833 11.1725 17.7067 11.3705Z" fill="#82D494"/>
  <rect x="4.48279" y="8.06836" width="17.0345" height="14.3448" fill="#82D494"/>
  <path d="M6.20382 12.2754V9.50164C6.04242 9.62717 5.6957 9.675 5.33105 9.675V8.87993C5.9109 8.87993 6.38316 8.65277 6.38316 8.14465H7.22007V12.2754H6.20382ZM9.63249 12.371C8.39506 12.371 7.8152 11.4445 7.8152 10.213C7.8152 8.98156 8.39506 8.049 9.63249 8.049C10.8699 8.049 11.4438 8.98156 11.4438 10.213C11.4438 11.4445 10.8699 12.371 9.63249 12.371ZM9.63249 11.5341C10.2243 11.5341 10.3857 10.9602 10.3857 10.213C10.3857 9.46577 10.2243 8.88591 9.63249 8.88591C9.04067 8.88591 8.87329 9.46577 8.87329 10.213C8.87329 10.9602 9.04067 11.5341 9.63249 11.5341ZM13.6898 12.371C12.4523 12.371 11.8725 11.4445 11.8725 10.213C11.8725 8.98156 12.4523 8.049 13.6898 8.049C14.9272 8.049 15.5011 8.98156 15.5011 10.213C15.5011 11.4445 14.9272 12.371 13.6898 12.371ZM13.6898 11.5341C14.2816 11.5341 14.443 10.9602 14.443 10.213C14.443 9.46577 14.2816 8.88591 13.6898 8.88591C13.0979 8.88591 12.9306 9.46577 12.9306 10.213C12.9306 10.9602 13.0979 11.5341 13.6898 11.5341ZM17.0237 10.4461C16.2884 10.4461 15.8222 9.98585 15.8222 9.25056C15.8222 8.51528 16.2884 8.049 17.0237 8.049C17.759 8.049 18.2193 8.51528 18.2193 9.25056C18.2193 9.98585 17.759 10.4461 17.0237 10.4461ZM17.5976 12.2754H16.958L19.2475 8.14465H19.8871L17.5976 12.2754ZM17.0237 9.84836C17.2329 9.84836 17.3226 9.66902 17.3226 9.25056C17.3226 8.82613 17.2329 8.64679 17.0237 8.64679C16.8085 8.64679 16.7188 8.82613 16.7188 9.25056C16.7188 9.66902 16.8085 9.84836 17.0237 9.84836ZM19.8214 12.371C19.0861 12.371 18.6258 11.9048 18.6258 11.1695C18.6258 10.4342 19.0861 9.97389 19.8214 9.97389C20.5567 9.97389 21.0229 10.4342 21.0229 11.1695C21.0229 11.9048 20.5567 12.371 19.8214 12.371ZM19.8214 11.7732C20.0366 11.7732 20.1263 11.5939 20.1263 11.1695C20.1263 10.751 20.0366 10.5717 19.8214 10.5717C19.6122 10.5717 19.5225 10.751 19.5225 11.1695C19.5225 11.5939 19.6122 11.7732 19.8214 11.7732ZM4.74383 18.3563C3.79785 18.3563 3.08458 17.8758 3.08458 17.0461H4.00526C4.00526 17.466 4.32395 17.6228 4.73371 17.6228C5.07264 17.6228 5.24464 17.4862 5.24464 17.2991C5.24464 16.9905 4.88547 16.9095 4.38466 16.7578C3.75738 16.5656 3.19587 16.3227 3.19587 15.6752C3.19587 14.8861 3.81303 14.5775 4.59206 14.5775C5.43687 14.5775 6.09955 15.0227 6.12485 15.7562H5.20417C5.1637 15.4779 4.94111 15.311 4.59206 15.311C4.3189 15.311 4.12667 15.4021 4.12667 15.6095C4.12667 15.8523 4.32901 15.9332 4.78935 16.0698C5.47228 16.2722 6.17543 16.4644 6.17543 17.2131C6.17543 17.9061 5.64933 18.3563 4.74383 18.3563ZM9.38379 18.2754H6.61163V14.6584H9.35343V15.4021H7.52219V16.0445H9.1005V16.7881H7.52219V17.5318H9.38379V18.2754ZM11.3615 18.3563C10.2132 18.3563 9.63142 17.5571 9.63142 16.4796C9.63142 15.3717 10.2435 14.5775 11.3868 14.5775C12.3732 14.5775 12.8993 15.1643 12.9853 16.004H12.0545C11.9888 15.6095 11.8269 15.3211 11.3463 15.3211C10.7443 15.3211 10.5622 15.7865 10.5622 16.4644C10.5622 17.1473 10.7443 17.6127 11.3463 17.6127C11.832 17.6127 11.9938 17.3244 12.0545 16.9197H12.9853C12.9044 17.7493 12.3581 18.3563 11.3615 18.3563ZM14.8816 18.3563C13.7889 18.3563 13.369 17.8707 13.369 16.9702V14.6584H14.2796V16.9702C14.2796 17.4407 14.4819 17.6127 14.8816 17.6127C15.2812 17.6127 15.4835 17.4407 15.4835 16.9702V14.6584H16.3941V16.9702C16.3941 17.8707 15.9742 18.3563 14.8816 18.3563ZM17.8816 18.2754H16.9711V14.6584H18.6758C19.4802 14.6584 19.9658 15.0328 19.9658 15.6904C19.9658 16.1963 19.6825 16.4947 19.2323 16.5959V16.606C20.1378 16.7628 19.809 18.1641 20.0164 18.2248V18.2754H19.0704C18.8934 18.1236 19.2222 17.0158 18.4482 17.0158H17.8816V18.2754ZM17.8816 16.2722H18.4988C18.863 16.2722 19.0552 16.1406 19.0552 15.8371C19.0552 15.5336 18.863 15.4021 18.4988 15.4021H17.8816V16.2722ZM23.226 18.2754H20.4539V14.6584H23.1957V15.4021H21.3644V16.0445H22.9427V16.7881H21.3644V17.5318H23.226V18.2754Z" fill="white"/>
</svg>
