<svg width="16" height="16" viewBox="0 0 16 16" fill="none" xmlns="http://www.w3.org/2000/svg">
  <path d="M8 0C3.58867 0 0 3.58867 0 8C0 12.4113 3.58867 16 8 16C12.4113 16 16 12.4113 16 8C16 3.58867 12.4113 0 8 0ZM11.8047 12.138C11.7429 12.2001 11.6695 12.2494 11.5886 12.2831C11.5077 12.3167 11.4209 12.334 11.3333 12.334C11.2457 12.334 11.159 12.3167 11.0781 12.2831C10.9972 12.2494 10.9238 12.2001 10.862 12.138L7.52867 8.80467C7.46664 8.74286 7.41745 8.6694 7.38392 8.58851C7.3504 8.50762 7.33321 8.4209 7.33333 8.33333V4C7.33333 3.82319 7.40357 3.65362 7.5286 3.5286C7.65362 3.40357 7.82319 3.33333 8 3.33333C8.17681 3.33333 8.34638 3.40357 8.47141 3.5286C8.59643 3.65362 8.66667 3.82319 8.66667 4V8.05733L11.8047 11.1953C11.8666 11.2572 11.9158 11.3307 11.9493 11.4115C11.9829 11.4924 12.0001 11.5791 12.0001 11.6667C12.0001 11.7542 11.9829 11.8409 11.9493 11.9218C11.9158 12.0027 11.8666 12.0761 11.8047 12.138Z" fill="#CDCDCD"/>
</svg>
