<svg width="18" height="18" viewBox="0 0 18 18" fill="none" xmlns="http://www.w3.org/2000/svg">
  <path d="M8.7875 8.78571C9.7197 8.78571 10.5269 8.45134 11.1865 7.79165C11.8461 7.1321 12.1804 6.32507 12.1804 5.39276C12.1804 4.46071 11.8461 3.65361 11.1864 2.99381C10.5267 2.33434 9.71959 2 8.7875 2C7.85515 2 7.0481 2.33434 6.38855 2.99392C5.729 3.6535 5.39452 4.46063 5.39452 5.39276C5.39452 6.32507 5.72897 7.13221 6.38866 7.79178C7.04835 8.45125 7.85548 8.78571 8.7875 8.78571ZM14.7242 12.8321C14.7052 12.5576 14.6667 12.2582 14.6101 11.942C14.5529 11.6234 14.4793 11.3223 14.3912 11.0471C14.3002 10.7626 14.1763 10.4817 14.0233 10.2124C13.8645 9.93299 13.6779 9.68966 13.4685 9.48944C13.2496 9.27998 12.9816 9.11157 12.6716 8.9887C12.3627 8.86654 12.0204 8.80463 11.6543 8.80463C11.5104 8.80463 11.3714 8.86362 11.1028 9.0385C10.9119 9.16282 10.7204 9.28626 10.5283 9.40883C10.3438 9.52642 10.0938 9.63658 9.78505 9.73632C9.4838 9.8338 9.17794 9.88324 8.87603 9.88324C8.57416 9.88324 8.26837 9.8338 7.9668 9.73632C7.65837 9.63667 7.40839 9.52653 7.22405 9.40894C7.01027 9.27233 6.81685 9.14767 6.64907 9.03836C6.38082 8.86351 6.24163 8.8045 6.09784 8.8045C5.73156 8.8045 5.38937 8.86651 5.08059 8.98884C4.77085 9.11146 4.5027 9.27987 4.28356 9.48955C4.07432 9.68988 3.88764 9.93307 3.729 10.2124C3.57608 10.4816 3.45227 10.7625 3.36112 11.0472C3.27307 11.3224 3.19947 11.6234 3.1423 11.942C3.08565 12.2578 3.04719 12.5573 3.02815 12.8324C3.00921 13.1093 2.99982 13.3867 3 13.6643C3 14.3996 3.23376 14.9949 3.69472 15.4339C4.14998 15.8672 4.75236 16.087 5.4849 16.087H12.2678C13.0004 16.087 13.6025 15.8673 14.0579 15.434C14.519 14.9952 14.7527 14.3998 14.7527 13.6642C14.7526 13.3803 14.7431 13.1004 14.7242 12.8321Z" fill="#CDCDCD"/>
</svg>
