<svg width="15" height="13" viewBox="0 0 15 13" fill="none" xmlns="http://www.w3.org/2000/svg">
    <path d="M14.0498 9.52537L9.02716 1.49495C8.20678 0.16835 6.13221 0.16835 5.31477 1.49495L0.289179 9.52537C-0.531206 10.852 0.489849 12.5 2.14537 12.5H12.1759C13.8314 12.5 14.8702 10.8356 14.0498 9.52537ZM7.16802 10.7185C6.73127 10.7185 6.36829 10.3834 6.36829 9.98028C6.36829 9.57712 6.73127 9.24207 7.16802 9.24207C7.60477 9.24207 7.96774 9.57712 7.95004 9.99935C7.9707 10.3834 7.58706 10.7185 7.16802 10.7185ZM7.89692 5.946C7.86151 6.51805 7.82314 7.08737 7.78773 7.65941C7.77003 7.84465 7.77003 8.01353 7.77003 8.19604C7.75232 8.49841 7.49558 8.73268 7.16802 8.73268C6.84045 8.73268 6.58667 8.51476 6.56601 8.21239C6.51289 7.32163 6.45682 6.44722 6.4037 5.55647C6.386 5.3222 6.36829 5.08521 6.34763 4.85094C6.34763 4.46413 6.58371 4.14542 6.96735 4.04463C7.35098 3.96019 7.73166 4.12908 7.89692 4.46413C7.95299 4.58127 7.9707 4.6984 7.9707 4.8346C7.95299 5.20779 7.91463 5.57826 7.89692 5.946Z" fill="#FF3333"/>
</svg>
